<svg width="0" height="0" class="hidden">
  <symbol xmlns="http://www.w3.org/2000/svg" xmlns:xlink="http://www.w3.org/1999/xlink" viewBox="0 0 121 139" id="search">
    <path fill-rule="evenodd" clip-rule="evenodd" d="M75,106.6c-10.6,0-20.6-4.1-28.1-11.6S35.3,77.5,35.3,66.9c0-10.6,4.1-20.6,11.6-28.1c7.5-7.5,17.5-11.6,28.1-11.6  c10.6,0,20.6,4.1,28.1,11.6c15.5,15.5,15.5,40.7,0,56.2C95.6,102.5,85.6,106.6,75,106.6L75,106.6z M75,38.8  c-7.5,0-14.6,2.9-19.9,8.2c-11,11-11,28.8,0,39.8C60.4,92.1,67.5,95,75,95c7.5,0,14.6-2.9,19.9-8.2c5.3-5.3,8.2-12.4,8.2-19.9  c0-7.5-2.9-14.6-8.2-19.9C89.6,41.7,82.5,38.8,75,38.8L75,38.8z M7.6,123.4l29.8-29.8c1.5,2.1,3.2,4.1,5,5.9c1.8,1.8,3.8,3.5,5.9,5  l-29.8,29.8L7.6,123.4L7.6,123.4z"></path>
  </symbol>
  <symbol version="1.1" id="phone" xmlns="http://www.w3.org/2000/svg" xmlns:xlink="http://www.w3.org/1999/xlink" x="0px" y="0px" xml:space="preserve" viewBox="0 0 512 512">
    <path d="M256,32c123.5,0,224,100.5,224,224S379.5,480,256,480S32,379.5,32,256S132.5,32,256,32 M256,0C114.625,0,0,114.625,0,256
		s114.625,256,256,256s256-114.625,256-256S397.375,0,256,0L256,0z M398.719,341.594l-1.438-4.375
		c-3.375-10.062-14.5-20.562-24.75-23.375L334.688,303.5c-10.25-2.781-24.875,0.969-32.405,8.5l-13.688,13.688
		c-49.75-13.469-88.781-52.5-102.219-102.25l13.688-13.688c7.5-7.5,11.25-22.125,8.469-32.406L198.219,139.5
		c-2.781-10.25-13.344-21.375-23.406-24.75l-4.313-1.438c-10.094-3.375-24.5,0.031-32,7.563l-20.5,20.5
		c-3.656,3.625-6,14.031-6,14.063c-0.688,65.063,24.813,127.719,70.813,173.75c45.875,45.875,108.313,71.345,173.156,70.781
		c0.344,0,11.063-2.281,14.719-5.938l20.5-20.5C398.688,366.062,402.062,351.656,398.719,341.594z"></path>
  </symbol>
  <symbol id="mail" xmlns="http://www.w3.org/2000/svg" viewBox="0 0 128 128">
    <path d="M116.73,31.83a3,3,0,0,0-4.2-.61L64.14,67.34a1,1,0,0,1-1.2,0L15.5,31.06a3,3,0,1,0-3.64,4.77L49.16,64.36,12.27,92.16A3,3,0,1,0,15.88,97L54.11,68.14l5.18,4a7,7,0,0,0,8.43.06l5.44-4.06L111.84,97a3,3,0,1,0,3.59-4.81L78.17,64.35,116.12,36A3,3,0,0,0,116.73,31.83Z"></path>
    <path d="M113,19H15A15,15,0,0,0,0,34V94a15,15,0,0,0,15,15h98a15,15,0,0,0,15-15V34A15,15,0,0,0,113,19Zm9,75a9,9,0,0,1-9,9H15a9,9,0,0,1-9-9V34a9,9,0,0,1,9-9h98a9,9,0,0,1,9,9Z"></path>
  </symbol>
  <symbol xmlns="http://www.w3.org/2000/svg" viewBox="0 0 24 24" id="showmore">
    <path d="M12 21L0 3h24z"></path>
  </symbol>
  <symbol xmlns="http://www.w3.org/2000/svg" viewBox="0 0 24 24" id="check">
    <path d="M0 12.116l2.053-1.897c2.401 1.162 3.924 2.045 6.622 3.969 5.073-5.757 8.426-8.678 14.657-12.555l.668 1.536c-5.139 4.484-8.902 9.479-14.321 19.198-3.343-3.936-5.574-6.446-9.679-10.251z"></path>
  </symbol>
</svg>
